<svg xmlns="http://www.w3.org/2000/svg" viewBox="0 0 512 512">
  <defs>
    <linearGradient id="bg" x1="0" y1="0" x2="1" y2="1">
      <stop offset="0" stop-color="#43a047"/>
      <stop offset="1" stop-color="#1b5e20"/>
    </linearGradient>
  </defs>
  <rect width="512" height="512" fill="url(#bg)"/>
  <g transform="translate(256 268)">
    <ellipse cx="0" cy="118" rx="150" ry="14" fill="#000" opacity="0.18"/>
    <rect x="-104" y="62" width="34" height="52" rx="14" fill="#f9a9c7" stroke="#46342e" stroke-width="11"/>
    <rect x="70" y="62" width="34" height="52" rx="14" fill="#f9a9c7" stroke="#46342e" stroke-width="11"/>
    <path d="M -128,-92 C -146,-128 -130,-152 -102,-155 C -88,-137 -88,-113 -102,-96 Z" fill="#f38fb6" stroke="#46342e" stroke-width="10" stroke-linejoin="round"/>
    <path d="M 128,-92 C 146,-128 130,-152 102,-155 C 88,-137 88,-113 102,-96 Z" fill="#f38fb6" stroke="#46342e" stroke-width="10" stroke-linejoin="round"/>
    <path d="M -154,-20 C -148,-88 -90,-136 0,-136 C 90,-136 148,-88 154,-20 C 160,50 100,96 0,96 C -100,96 -160,50 -154,-20 Z" fill="#f9a9c7" stroke="#46342e" stroke-width="12" stroke-linejoin="round"/>
    <rect x="-44" y="-136" width="88" height="18" rx="9" fill="#46342e" transform="rotate(-2)"/>
    <circle cx="-58" cy="-30" r="11" fill="#46342e"/>
    <circle cx="58" cy="-30" r="11" fill="#46342e"/>
    <circle cx="-96" cy="12" r="16" fill="#f77fae" opacity="0.8"/>
    <circle cx="96" cy="12" r="16" fill="#f77fae" opacity="0.8"/>
    <ellipse cx="0" cy="16" rx="52" ry="38" fill="#fbc7db" stroke="#46342e" stroke-width="11"/>
    <ellipse cx="-17" cy="16" rx="7" ry="12" fill="#46342e"/>
    <ellipse cx="17" cy="16" rx="7" ry="12" fill="#46342e"/>
    <g transform="translate(0 -196)">
      <circle r="34" fill="#f8c94b" stroke="#46342e" stroke-width="10"/>
      <text y="12" text-anchor="middle" font-family="Arial, sans-serif" font-size="38" font-weight="bold" fill="#8d6a0c">&#8362;</text>
    </g>
  </g>
</svg>
